<?xml version="1.0" encoding="UTF-8"?>
<svg width="32px" height="32px" viewBox="0 0 32 32" version="1.1" xmlns="http://www.w3.org/2000/svg" xmlns:xlink="http://www.w3.org/1999/xlink">
    <!-- Generator: Sketch 43.2 (39069) - http://www.bohemiancoding.com/sketch -->
    <title>Artboard</title>
    <desc>Created with Sketch.</desc>
    <defs></defs>
    <g id="Page-1" stroke="none" stroke-width="1" fill="none" fill-rule="evenodd">
        <g id="Artboard" fill-rule="nonzero" fill="#D7DCEB">
            <path d="M32,16 C32,15.5575 31.808,15.1595 31.5035,14.885 L31.5035,14.885 L26.5035,10.385 L26.5035,10.385 C26.2375,10.146 25.8855,10 25.5,10 C24.6715,10 24,10.6715 24,11.5 C24,11.9425 24.1915,12.3405 24.4965,12.615 L24.4965,12.615 L26.591,14.5 L5.409,14.5 L7.5035,12.615 L7.5035,12.615 C7.8085,12.3405 8,11.9425 8,11.5 C8,10.6715 7.3285,10 6.5,10 C6.114,10 5.7625,10.146 5.4965,10.385 L5.4965,10.385 L0.4965,14.885 L0.4965,14.885 C0.192,15.1595 0,15.5575 0,16 C0,16.4425 0.1915,16.84 0.4965,17.115 L0.4965,17.115 L5.4965,21.615 L5.4965,21.615 C5.7625,21.8545 6.114,22 6.5,22 C7.3285,22 8,21.3285 8,20.5 C8,20.0575 7.8085,19.66 7.5035,19.385 L7.5035,19.385 L5.409,17.5 L26.591,17.5 L24.497,19.385 L24.497,19.385 C24.192,19.66 24,20.0575 24,20.5 C24,21.3285 24.6715,22 25.5,22 C25.8855,22 26.2375,21.854 26.5035,21.615 L26.5035,21.615 L31.5035,17.115 L31.5035,17.115 C31.8085,16.841 32,16.4425 32,16 Z" id="Shape"></path>
        </g>
    </g>
</svg>