<?xml version="1.0" encoding="UTF-8"?>
<svg width="30px" height="30px" viewBox="0 0 30 30" version="1.1" xmlns="http://www.w3.org/2000/svg" xmlns:xlink="http://www.w3.org/1999/xlink">
    <!-- Generator: Sketch 43.2 (39069) - http://www.bohemiancoding.com/sketch -->
    <title>Artboard</title>
    <desc>Created with Sketch.</desc>
    <defs></defs>
    <g id="Page-1" stroke="none" stroke-width="1" fill="none" fill-rule="evenodd">
        <g id="Artboard" fill-rule="nonzero" fill="#E77D95">
            <path d="M25,10.4285714 C25,9.63952381 24.3604762,9 23.5714286,9 C23.1861905,9 22.8371429,9.15285714 22.58,9.40047619 L22.5795238,9.4 L14.9966667,16.9828571 L7.51190476,9.49809524 C7.25,9.19333333 6.86190476,9 6.42857143,9 C5.63952381,9 5,9.63952381 5,10.4285714 C5,10.8119048 5.15142857,11.16 5.39761905,11.4166667 L5.39380952,11.4204762 L13.9652381,19.9919048 L13.9657143,19.9914286 C14.2257143,20.2609524 14.59,20.4285714 14.9938095,20.4285714 L14.9971429,20.4285714 L15.0004762,20.4285714 C15.4047619,20.4285714 15.7680952,20.2609524 16.0285714,19.9914286 L16.0290476,19.9919048 L24.6004762,11.4204762 L24.6,11.42 C24.847619,11.1633333 25,10.8138095 25,10.4285714 Z" id="Shape" transform="translate(15.000000, 14.714286) scale(-1, 1) rotate(90.000000) translate(-15.000000, -14.714286) "></path>
        </g>
    </g>
</svg>