<?xml version="1.0" encoding="UTF-8"?>
<svg width="18px" height="59px" viewBox="0 0 18 59" version="1.1" xmlns="http://www.w3.org/2000/svg" xmlns:xlink="http://www.w3.org/1999/xlink">
    <!-- Generator: Sketch 43.2 (39069) - http://www.bohemiancoding.com/sketch -->
    <title>Group 2</title>
    <desc>Created with Sketch.</desc>
    <defs></defs>
    <g id="Page-1" stroke="none" stroke-width="1" fill="none" fill-rule="evenodd">
        <g id="Artboard" fill-rule="nonzero" fill="#FFFFFF">
            <g id="Group-2">
                <path d="M15.1814717,22 L14.2142264,22.9672453 C15.7218113,24.697283 16.6415094,26.9530566 16.6415094,29.4282264 C16.6415094,31.9033962 15.7218113,34.1591698 14.214566,35.8888679 L15.1818113,36.8564528 C16.9339245,34.8788302 18,32.2786792 18,29.4282264 C18,26.5777736 16.9339245,23.9776226 15.1814717,22 Z M8.49056604,23.6546415 C8.24569811,23.6546415 8.02392453,23.7446415 7.84833962,23.8886415 L7.84528302,23.8849057 L4.39403774,26.7088679 L1.01615094,26.7088679 L1.01615094,26.7115849 C0.454754717,26.713283 0,27.1683774 0,27.7301132 L0,31.1263396 C0,31.6890943 0.456113208,32.1452075 1.01886792,32.1452075 L4.42324528,32.1452075 L7.89113208,34.6672453 L7.89283019,34.6648679 C8.06128302,34.7878113 8.26641509,34.8621887 8.49056604,34.8621887 C9.05332075,34.8621887 9.50943396,34.4060755 9.50943396,33.8433208 L9.50943396,24.6735094 C9.50943396,24.1107547 9.05332075,23.6546415 8.49056604,23.6546415 Z M12.5327547,24.6483774 L11.5661887,25.615283 C12.4030189,26.6609811 12.9056604,27.9848302 12.9056604,29.4282264 C12.9056604,30.8716226 12.4030189,32.1954717 11.5665283,33.2411698 L12.5330943,34.2084151 C13.6130943,32.9127547 14.2641509,31.2469057 14.2641509,29.4282264 C14.2641509,27.6095472 13.6130943,25.9436981 12.5327547,24.6483774 Z" id="Shape"></path>
                <path d="M15.0100002,52.8578572 C15.0100002,52.3840341 14.6259662,52 14.1521431,52 C13.9208076,52 13.7112045,52.0917907 13.5567902,52.240486 L13.5565042,52.2402 L9.00299845,56.7937058 L4.50839884,52.2991062 C4.35112503,52.1160967 4.11807383,52 3.85785716,52 C3.38403405,52 3,52.3840341 3,52.8578572 C3,53.0880488 3.09093286,53.29708 3.23877024,53.4512084 L3.23648262,53.453496 L8.38362558,58.6006389 L8.38391153,58.600353 C8.54004153,58.762202 8.75879511,58.8628573 9.00128273,58.8628573 L9.0032844,58.8628573 L9.00528607,58.8628573 C9.24805964,58.8628573 9.46624131,58.762202 9.62265727,58.600353 L9.62294322,58.6006389 L14.7700862,53.453496 L14.7698002,53.45321 C14.9184955,53.2990817 15.0100002,53.0891926 15.0100002,52.8578572 Z" id="Shape" opacity="0.696841033"></path>
                <path d="M14.7695143,5.40964725 L14.7695143,5.40964725 L9.62265727,0.262218338 L9.62237132,0.262504291 C9.46624131,0.10065524 9.24748774,0 9.00500011,0 L9.00299845,0 L9.00099678,0 C8.75850916,0 8.53975558,0.10065524 8.38362558,0.262504291 L8.38333963,0.262218338 L3.23619667,5.40936129 L3.23848429,5.41164891 C3.09093286,5.56577725 3,5.77480844 3,6.00500011 C3,6.47882322 3.38403405,6.86285727 3.85785716,6.86285727 C4.11807383,6.86285727 4.35112503,6.7467606 4.50839884,6.56375108 L9.00299845,2.06915147 L13.5565042,6.62265727 L13.5567902,6.62237132 C13.7112045,6.77135251 13.9208076,6.86285727 14.1521431,6.86285727 C14.6259662,6.86285727 15.0100002,6.47882322 15.0100002,6.00500011 C15.0100002,5.77366463 14.9184955,5.56406153 14.7695143,5.40964725 Z" id="Shape" opacity="0.696841033"></path>
            </g>
        </g>
    </g>
</svg>