<?xml version="1.0" encoding="UTF-8"?>
<svg width="32px" height="32px" viewBox="0 0 32 32" version="1.1" xmlns="http://www.w3.org/2000/svg" xmlns:xlink="http://www.w3.org/1999/xlink">
    <!-- Generator: Sketch 43.2 (39069) - http://www.bohemiancoding.com/sketch -->
    <title>Artboard</title>
    <desc>Created with Sketch.</desc>
    <defs></defs>
    <g id="Page-1" stroke="none" stroke-width="1" fill="none" fill-rule="evenodd">
        <g id="Artboard" fill-rule="nonzero" fill="#D7DCEB">
            <path d="M30.5,14.5 C29.6715,14.5 29,15.1715 29,16 C29,23.1795 23.1795,29 16,29 C11.616,29 7.747,26.826 5.3965,23.5 L8,23.5 C8.8285,23.5 9.5,22.8285 9.5,22 C9.5,21.1715 8.8285,20.5 8,20.5 L1.5,20.5 C0.6715,20.5 0,21.1715 0,22 L0,28 C0,28.8285 0.6715,29.5 1.5,29.5 C2.3285,29.5 3,28.8285 3,28 L3,25.273 C5.8945,29.34 10.627,32 16,32 C24.8365,32 32,24.8365 32,16 C32,15.1715 31.3285,14.5 30.5,14.5 Z M30.5,2.5 C29.6715,2.5 29,3.1715 29,4 L29,6.706 C26.102,2.6495 21.366,0 16,0 C7.1635,0 0,7.1635 0,16 C0,16.8285 0.6715,17.5 1.5,17.5 C2.3285,17.5 3,16.8285 3,16 C3,8.8205 8.8205,3 16,3 C20.38,3 24.2345,5.1775 26.5835,8.5 L24,8.5 C23.1715,8.5 22.5,9.1715 22.5,10 C22.5,10.8285 23.1715,11.5 24,11.5 L30.5,11.5 C31.3285,11.5 32,10.8285 32,10 L32,4 C32,3.1715 31.3285,2.5 30.5,2.5 Z" id="Shape"></path>
        </g>
    </g>
</svg>